<svg xmlns="http://www.w3.org/2000/svg" width="148.783" height="56.924" viewBox="0 0 148.783 56.924">
  <g id="Group_76722" data-name="Group 76722" transform="translate(-308.193 -290.905)">
    <path id="Path_153" data-name="Path 153" d="M332.58,429.768H320.387l-12.193-32.56h12.193Z" transform="translate(0 -94.122)"/>
    <path id="Path_154" data-name="Path 154" d="M414.59,429.768h12.193l12.193-32.56H426.784Z" transform="translate(-94.204 -94.122)"/>
    <path id="Path_155" data-name="Path 155" d="M994.492,431.284H982.3l-6.127-16.031,6.116-16.333Z" transform="translate(-591.831 -95.637)"/>
    <path id="Path_156" data-name="Path 156" d="M990.489,442.216h12.043l16.734-45.008h-12.042l-12.248,32.823,12.193,0-13.387,3.226Z" transform="translate(-604.552 -94.387)"/>
    <path id="Path_157" data-name="Path 157" d="M701.165,290.9H689.123l-16.734,45.007h12.042l12.248-32.823-12.193,0,13.387-3.226Z" transform="translate(-322.698 0)"/>
    <path id="Path_158" data-name="Path 158" d="M1319.275,397.208h-12.063l-12.193,32.56h12.051Z" transform="translate(-874.426 -94.122)"/>
    <path id="Path_159" data-name="Path 159" d="M1400.846,397.208h12.063l12.193,32.56h-12.051Z" transform="translate(-968.126 -94.122)"/>
  </g>
</svg>
